<svg xmlns="http://www.w3.org/2000/svg" xmlns:xlink="http://www.w3.org/1999/xlink" viewBox="0 0 1718 1261"><defs><style>.a{fill:url(#a);}.b{font-size:195.86px;font-family:AvenirNextCyr-Bold, Avenir Next Cyr;font-weight:700;}.c{letter-spacing:-0.03em;}.d{letter-spacing:-0.02em;}.e{letter-spacing:-0.06em;}</style><linearGradient id="a" x1="274.31" y1="809.64" x2="775.01" y2="809.64" gradientUnits="userSpaceOnUse"><stop offset="0" stop-color="#ff3434"/><stop offset="0.37" stop-color="#ff2b39"/><stop offset="0.99" stop-color="#ff1145"/><stop offset="1" stop-color="#ff1145"/></linearGradient></defs><title>blob</title><path class="a" d="M743,662.53C806,746,766.16,872.39,708.33,948c-62.47,81.68-186.4,91.88-280.24,72.61-47.85-9.83-90.31-35.12-116-77.57C286,899.76,276.37,846.82,274.57,796.9c-1.63-45.27,3.82-96.93,33.12-133.6C336,627.9,382.62,606.19,426,596.51c56-12.48,120-3.63,176,5C649.93,609,712.67,620.15,743,662.53Z"/><text class="b" transform="translate(392.02 656.93)">NU<tspan class="c" x="299.26" y="0">V</tspan><tspan class="d" x="426.96" y="0">A</tspan><tspan x="0" y="235.03">CRE</tspan><tspan class="e" x="385.05" y="235.03">A</tspan><tspan x="516.08" y="235.03">TES</tspan></text></svg>