<!-- Generator: Adobe Illustrator 19.0.0, SVG Export Plug-In  -->
<svg version="1.1"
	 xmlns="http://www.w3.org/2000/svg" xmlns:xlink="http://www.w3.org/1999/xlink" xmlns:a="http://ns.adobe.com/AdobeSVGViewerExtensions/3.0/"
	 x="0px" y="0px" width="300px" height="302.5px" viewBox="0 0 300 302.5" style="enable-background:new 0 0 300 302.5;"
	 xml:space="preserve">
<style type="text/css">
	.st0{fill:#FFFFFF;}
</style>
<defs>
</defs>
<g id="XMLID_16_">
	<g id="XMLID_17_">
		<g id="Nuva_Logo_1_">
			<path id="XMLID_18_" class="st0" d="M126,302.2c-2.3,0.7-5.7,0.2-7.7-1.2l-105-71.6c-2-1.3-3.7-4.4-3.9-6.7L0,96
				c-0.2-2.4,1.1-5.6,2.8-7.2L96,2.4c1.7-1.6,5.1-2.6,7.4-2.3L229,19c2.3,0.4,5.2,2.3,6.4,4.4l63.5,110.1c1.2,2,1.4,5.5,0.6,7.7
				l-46.4,118.3c-0.9,2.2-3.4,4.6-5.7,5.3L126,302.2L126,302.2z M189.4,199.5c2.3-0.7,4.8-3.1,5.7-5.3l19.9-50.8
				c0.9-2.2,0.6-5.7-0.6-7.7l-27.3-47.3c-1.2-2-4.1-4-6.4-4.4L126.8,76c-2.3-0.4-5.7,0.7-7.4,2.3l-40,37.1c-1.7,1.6-3,4.9-2.8,7.2
				l4.1,54.4c0.2,2.4,1.9,5.4,3.9,6.7l45.1,30.8c2,1.3,5.4,1.9,7.7,1.2L189.4,199.5L189.4,199.5z"/>
		</g>
	</g>
</g>
</svg>
